<svg width="323" height="341" viewBox="0 0 323 341" fill="none" xmlns="http://www.w3.org/2000/svg">
<ellipse cx="161.736" cy="189.796" rx="147.64" ry="151.048" fill="#4B82EA"/>
<path d="M290.189 31.1621L274.626 103.859L219.071 54.1133L290.189 31.1621Z" fill="#4B82EA"/>
<path d="M277.88 43.5553L260.642 90.9452L232.665 66.3453L277.88 43.5553Z" fill="#FFA4A4"/>
<path d="M34.9736 31.087L105.901 54.6631L49.9467 103.92L34.9736 31.087Z" fill="#4B82EA"/>
<path d="M43.4332 40.5429L87.9446 64.715L59.2471 88.4438L43.4332 40.5429Z" fill="#FFA4A4"/>
<path d="M129.791 147.742C129.791 161.014 119.161 171.773 106.048 171.773C92.9346 171.773 82.3044 161.014 82.3044 147.742C82.3044 134.471 92.9346 123.712 106.048 123.712C119.161 123.712 129.791 134.471 129.791 147.742Z" fill="#D9D9D9"/>
<path d="M235.124 147.742C235.124 161.014 224.494 171.773 211.381 171.773C198.268 171.773 187.638 161.014 187.638 147.742C187.638 134.471 198.268 123.712 211.381 123.712C224.494 123.712 235.124 134.471 235.124 147.742Z" fill="#D9D9D9"/>
<path d="M119.865 148.344C119.865 156.352 113.597 162.844 105.865 162.844C98.1326 162.844 91.8646 156.352 91.8646 148.344C91.8646 140.336 98.1326 133.844 105.865 133.844C113.597 133.844 119.865 140.336 119.865 148.344Z" fill="black"/>
<ellipse cx="211.865" cy="148.344" rx="14" ry="14.5" fill="black"/>
<path d="M212.865 254.167C212.865 279.296 189.807 299.667 161.365 299.667C132.922 299.667 109.865 279.296 109.865 254.167C109.865 229.038 132.922 262.667 161.365 262.667C189.807 262.667 212.865 229.038 212.865 254.167Z" fill="black"/>
<path d="M47.8646 93.8433L276.365 94.3433L284.365 104.843H39.8646L47.8646 93.8433Z" fill="#FFC821"/>
</svg>
