<svg width="409" height="530" viewBox="0 0 409 530" fill="none" xmlns="http://www.w3.org/2000/svg">
<ellipse cx="214.6" cy="215.15" rx="178.126" ry="172.906" fill="#FFB0CD"/>
<path d="M369.577 33.5612L350.8 116.778L283.774 59.8336L369.577 33.5612Z" fill="#FFB0CD"/>
<path d="M354.727 47.7476L333.929 101.995L300.175 73.8354L354.727 47.7476Z" fill="#FFA4A4"/>
<path d="M37.3171 45.3903L124.583 66.9529L61.1502 127.448L37.3171 45.3903Z" fill="#FFB0CD"/>
<path d="M51.6513 60.0405L108.14 82.1592L76.7434 112.648L51.6513 60.0405Z" fill="#FFA4A4"/>
<path d="M176.059 167.012C176.059 182.204 163.233 194.519 147.413 194.519C131.592 194.519 118.767 182.204 118.767 167.012C118.767 151.82 131.592 139.504 147.413 139.504C163.233 139.504 176.059 151.82 176.059 167.012Z" fill="#D9D9D9"/>
<path d="M303.142 167.012C303.142 182.204 290.317 194.519 274.496 194.519C258.676 194.519 245.85 182.204 245.85 167.012C245.85 151.82 258.676 139.504 274.496 139.504C290.317 139.504 303.142 151.82 303.142 167.012Z" fill="#D9D9D9"/>
<path d="M156.782 158.598C156.782 167.765 149.219 175.197 139.891 175.197C130.562 175.197 123 167.765 123 158.598C123 149.431 130.562 142 139.891 142C149.219 142 156.782 149.431 156.782 158.598Z" fill="black"/>
<path d="M281.782 159.598C281.782 168.765 274.219 176.197 264.891 176.197C255.562 176.197 248 168.765 248 159.598C248 150.431 255.562 143 264.891 143C274.219 143 281.782 150.431 281.782 159.598Z" fill="black"/>
<path d="M277.493 287.692C277.493 316.457 249.674 339.776 215.358 339.776C181.043 339.776 153.224 316.457 153.224 287.692C153.224 258.926 181.043 297.422 215.358 297.422C249.674 297.422 277.493 258.926 277.493 287.692Z" fill="black"/>
</svg>
