<svg width="409" height="530" viewBox="0 0 409 530" fill="none" xmlns="http://www.w3.org/2000/svg">
<ellipse cx="214.6" cy="215.15" rx="178.126" ry="172.906" fill="#FFB0CD"/>
<path d="M369.577 33.5612L350.8 116.778L283.774 59.8336L369.577 33.5612Z" fill="#FFB0CD"/>
<path d="M354.727 47.7476L333.929 101.995L300.175 73.8354L354.727 47.7476Z" fill="#FFA4A4"/>
<path d="M37.3171 45.3903L124.583 66.9529L61.1502 127.448L37.3171 45.3903Z" fill="#FFB0CD"/>
<path d="M51.6513 60.0405L108.14 82.1592L76.7434 112.648L51.6513 60.0405Z" fill="#FFA4A4"/>
<path d="M176.059 167.012C176.059 182.204 163.233 194.519 147.413 194.519C131.592 194.519 118.767 182.204 118.767 167.012C118.767 151.82 131.592 139.504 147.413 139.504C163.233 139.504 176.059 151.82 176.059 167.012Z" fill="#D9D9D9"/>
<path d="M303.142 167.012C303.142 182.204 290.317 194.519 274.496 194.519C258.676 194.519 245.85 182.204 245.85 167.012C245.85 151.82 258.676 139.504 274.496 139.504C290.317 139.504 303.142 151.82 303.142 167.012Z" fill="#D9D9D9"/>
<path d="M164.782 155.598C164.782 164.765 157.219 172.197 147.891 172.197C138.562 172.197 131 164.765 131 155.598C131 146.431 138.562 139 147.891 139C157.219 139 164.782 146.431 164.782 155.598Z" fill="black"/>
<path d="M290.782 155.598C290.782 164.765 283.219 172.197 273.891 172.197C264.562 172.197 257 164.765 257 155.598C257 146.431 264.562 139 273.891 139C283.219 139 290.782 146.431 290.782 155.598Z" fill="black"/>
<path d="M277.493 287.692C277.493 316.457 249.674 339.776 215.358 339.776C181.043 339.776 153.224 316.457 153.224 287.692C153.224 258.926 181.043 297.422 215.358 297.422C249.674 297.422 277.493 258.926 277.493 287.692Z" fill="black"/>
</svg>
