<svg width="338" height="339" viewBox="0 0 338 339" fill="none" xmlns="http://www.w3.org/2000/svg">
<ellipse cx="177.296" cy="187.354" rx="147.64" ry="151.048" fill="#FFB0CD"/>
<path d="M305.749 28.7207L290.186 101.418L234.631 51.6719L305.749 28.7207Z" fill="#FFB0CD"/>
<path d="M293.44 41.1137L276.202 88.5036L248.225 63.9036L293.44 41.1137Z" fill="#FFA4A4"/>
<path d="M30.3551 39.0543L102.686 57.8911L50.1091 110.738L30.3551 39.0543Z" fill="#FFB0CD"/>
<path d="M42.2359 51.8526L89.0568 71.1752L63.0335 97.8096L42.2359 51.8526Z" fill="#FFA4A4"/>
<path d="M145.351 145.301C145.351 158.573 134.721 169.331 121.608 169.331C108.495 169.331 97.8646 158.573 97.8646 145.301C97.8646 132.029 108.495 121.271 121.608 121.271C134.721 121.271 145.351 132.029 145.351 145.301Z" fill="#D9D9D9"/>
<path d="M250.685 145.301C250.685 158.572 240.054 169.331 226.941 169.331C213.828 169.331 203.198 158.572 203.198 145.301C203.198 132.029 213.828 121.271 226.941 121.271C240.054 121.271 250.685 132.029 250.685 145.301Z" fill="#D9D9D9"/>
<line x1="223.06" y1="261.662" x2="131.537" y2="261.662" stroke="black"/>
<path d="M135.425 145.902C135.425 153.91 129.157 160.402 121.425 160.402C113.693 160.402 107.425 153.91 107.425 145.902C107.425 137.894 113.693 131.402 121.425 131.402C129.157 131.402 135.425 137.894 135.425 145.902Z" fill="black"/>
<ellipse cx="227.425" cy="145.902" rx="14" ry="14.5" fill="black"/>
<path d="M146.54 134.791C147.791 147.516 134.94 135.918 119.501 137.417C104.061 138.917 93.7324 156.335 92.4815 143.61C91.2307 130.885 102.352 121.528 117.791 120.028C133.231 118.529 145.289 122.066 146.54 134.791Z" fill="#FF80AE"/>
<path d="M200.25 134.791C198.999 147.516 211.85 135.918 227.29 137.417C242.729 138.917 253.058 156.335 254.309 143.61C255.56 130.885 244.439 121.528 228.999 120.028C213.559 118.529 201.501 122.066 200.25 134.791Z" fill="#FF80AE"/>
</svg>
