<svg width="339" height="463" viewBox="0 0 339 463" fill="none" xmlns="http://www.w3.org/2000/svg">
<ellipse cx="177.872" cy="187.952" rx="147.64" ry="151.048" fill="#FFB0CD"/>
<path d="M306.324 29.3186L290.761 102.016L235.206 52.2698L306.324 29.3186Z" fill="#FFB0CD"/>
<path d="M294.015 41.7116L276.777 89.1015L248.8 64.5015L294.015 41.7116Z" fill="#FFA4A4"/>
<path d="M30.9303 39.6522L103.261 58.489L50.6843 111.336L30.9303 39.6522Z" fill="#FFB0CD"/>
<path d="M42.8112 52.4505L89.6321 71.7731L63.6088 98.4075L42.8112 52.4505Z" fill="#FFA4A4"/>
<path d="M145.926 145.899C145.926 159.17 135.296 169.929 122.183 169.929C109.07 169.929 98.4398 159.17 98.4398 145.899C98.4398 132.627 109.07 121.868 122.183 121.868C135.296 121.868 145.926 132.627 145.926 145.899Z" fill="#D9D9D9"/>
<path d="M251.26 145.899C251.26 159.17 240.63 169.929 227.517 169.929C214.404 169.929 203.773 159.17 203.773 145.899C203.773 132.627 214.404 121.868 227.517 121.868C240.63 121.868 251.26 132.627 251.26 145.899Z" fill="#D9D9D9"/>
<path d="M136 146.5C136 154.508 129.732 161 122 161C114.268 161 108 154.508 108 146.5C108 138.492 114.268 132 122 132C129.732 132 136 138.492 136 146.5Z" fill="black"/>
<ellipse cx="228" cy="146.5" rx="14" ry="14.5" fill="black"/>
<path d="M147.115 135.389C148.366 148.114 135.516 136.516 120.076 138.015C104.636 139.515 94.3077 156.932 93.0568 144.208C91.8059 131.483 102.927 122.126 118.367 120.626C133.806 119.127 145.864 122.664 147.115 135.389Z" fill="#FF80AE"/>
<path d="M200.826 135.389C199.575 148.114 212.425 136.516 227.865 138.015C243.305 139.515 253.633 156.932 254.884 144.208C256.135 131.483 245.014 122.126 229.574 120.626C214.135 119.127 202.077 122.664 200.826 135.389Z" fill="#FF80AE"/>
<ellipse cx="180.5" cy="262" rx="44.5" ry="19" fill="black"/>
</svg>
